<svg aria-hidden="true" style="position: absolute; width: 0; height: 0; overflow: hidden;" version="1.1" xmlns="http://www.w3.org/2000/svg" xmlns:xlink="http://www.w3.org/1999/xlink">
<defs>
<symbol id="icon-eye" viewBox="0 0 32 32">
<path stroke-linejoin="round" stroke-linecap="round" stroke-miterlimit="4" stroke-width="2.88" d="M1.333 16c0 0 5.333-10.667 14.667-10.667s14.667 10.667 14.667 10.667c0 0-5.333 10.667-14.667 10.667s-14.667-10.667-14.667-10.667z"></path>
<path stroke-linejoin="round" stroke-linecap="round" stroke-miterlimit="4" stroke-width="2.88" d="M16 20c2.209 0 4-1.791 4-4s-1.791-4-4-4c-2.209 0-4 1.791-4 4s1.791 4 4 4z"></path>
</symbol>
<symbol id="icon-upload" viewBox="0 0 32 32" fill='none'>
<path d="M15.75 11.25V14.25C15.75 14.6478 15.592 15.0294 15.3107 15.3107C15.0294 15.592 14.6478 15.75 14.25 15.75H3.75C3.35218 15.75 2.97064 15.592 2.68934 15.3107C2.40804 15.0294 2.25 14.6478 2.25 14.25V11.25" stroke="#2F2F2F" stroke-width="1.8" stroke-linecap="round" stroke-linejoin="round" />
<path d="M12.75 6L9 2.25L5.25 6" stroke="#2F2F2F" stroke-width="1.8" stroke-linecap="round" stroke-linejoin="round" />
<path d="M9 2.25V11.25" stroke="#2F2F2F" stroke-width="1.8" stroke-linecap="round" stroke-linejoin="round" />
</symbol>
<symbol id="icon-close" viewBox="0 0 32 32">
<path stroke-linejoin="round" stroke-linecap="round" stroke-miterlimit="4" stroke-width="3.4286" d="M24 8l-16 16"></path>
<path stroke-linejoin="round" stroke-linecap="round" stroke-miterlimit="4" stroke-width="3.4286" d="M8 8l16 16"></path>
</symbol>
<symbol id="icon-pie-chart-02" viewBox="0 0 32 32">
<path fill="none" stroke="#323f47" style="stroke: var(--color1, #323f47)" stroke-linejoin="round" stroke-linecap="round" stroke-miterlimit="4" stroke-width="2.6667" d="M22.933 18.667c0.369 0 0.554 0 0.704 0.082 0.123 0.068 0.238 0.195 0.293 0.324 0.067 0.157 0.050 0.324 0.016 0.659-0.174 1.733-0.77 3.404-1.744 4.861-1.172 1.754-2.838 3.121-4.787 3.929s-4.094 1.019-6.163 0.607c-2.069-0.412-3.97-1.428-5.462-2.919s-2.508-3.392-2.919-5.461c-0.412-2.069-0.2-4.214 0.607-6.163s2.175-3.615 3.929-4.787c1.457-0.974 3.128-1.57 4.861-1.744 0.334-0.034 0.502-0.050 0.659 0.016 0.13 0.055 0.257 0.17 0.324 0.293 0.082 0.15 0.082 0.334 0.082 0.704v8.533c0 0.373 0 0.56 0.073 0.703 0.064 0.125 0.166 0.227 0.291 0.291 0.143 0.073 0.329 0.073 0.703 0.073h8.533z"></path>
<path fill="none" stroke="#9be1a0" style="stroke: var(--color2, #9be1a0)" stroke-linejoin="round" stroke-linecap="round" stroke-miterlimit="4" stroke-width="2.6667" d="M18.667 3.733c0-0.369 0-0.554 0.082-0.704 0.068-0.123 0.195-0.238 0.324-0.293 0.157-0.067 0.324-0.050 0.659-0.016 2.438 0.245 4.73 1.323 6.478 3.071s2.826 4.040 3.071 6.478c0.033 0.334 0.050 0.502-0.016 0.659-0.055 0.13-0.17 0.257-0.293 0.324-0.15 0.082-0.334 0.082-0.704 0.082h-8.533c-0.373 0-0.56 0-0.703-0.073-0.125-0.064-0.227-0.166-0.291-0.291-0.073-0.143-0.073-0.329-0.073-0.703v-8.533z"></path>
</symbol>
<symbol id="icon-log-out" viewBox="0 0 32 32">
<path stroke-linejoin="round" stroke-linecap="round" stroke-miterlimit="4" stroke-width="3" d="M12 28h-5.333c-0.707 0-1.386-0.281-1.886-0.781s-0.781-1.178-0.781-1.886v-18.667c0-0.707 0.281-1.386 0.781-1.886s1.178-0.781 1.886-0.781h5.333"></path>
<path stroke-linejoin="round" stroke-linecap="round" stroke-miterlimit="4" stroke-width="3" d="M21.334 22.667l6.667-6.667-6.667-6.667"></path>
<path stroke-linejoin="round" stroke-linecap="round" stroke-miterlimit="4" stroke-width="3" d="M28 16h-16"></path>
</symbol>
<symbol id="icon-settings" viewBox="0 0 32 32" fill="none">
<path stroke="currentColor" stroke-linecap="round" stroke-linejoin="round" stroke-width="3" d="M16 20a4 4 0 1 0 0-8 4 4 0 0 0 0 8z"/>
<path  stroke="currentColor" stroke-linecap="round" stroke-linejoin="round" stroke-width="3" d="M25.867 20a2.205 2.205 0 0 0 .44 2.427l.08.08a2.672 2.672 0 0 1 .782 1.886 2.672 2.672 0 0 1-1.648 2.465 2.672 2.672 0 0 1-2.907-.579l-.08-.08a2.197 2.197 0 0 0-2.427-.44 2.2 2.2 0 0 0-1.334 2.013v.227a2.668 2.668 0 0 1-5.334 0v-.12a2.196 2.196 0 0 0-1.44-2.013 2.205 2.205 0 0 0-2.427.44l-.08.08a2.672 2.672 0 0 1-1.886.782 2.672 2.672 0 0 1-2.465-1.648 2.672 2.672 0 0 1 .579-2.907l.08-.08a2.197 2.197 0 0 0 .44-2.427 2.2 2.2 0 0 0-2.013-1.334H4a2.668 2.668 0 0 1 0-5.334h.12a2.196 2.196 0 0 0 2.013-1.44 2.2 2.2 0 0 0-.44-2.427l-.08-.08a2.666 2.666 0 0 1 .865-4.352 2.668 2.668 0 0 1 2.908.579l.08.08a2.197 2.197 0 0 0 2.427.44H12a2.2 2.2 0 0 0 1.334-2.013v-.227a2.668 2.668 0 0 1 5.334 0v.12a2.203 2.203 0 0 0 1.334 2.013 2.208 2.208 0 0 0 2.427-.44l.08-.08a2.672 2.672 0 0 1 1.886-.782 2.672 2.672 0 0 1 2.465 1.647 2.668 2.668 0 0 1-.579 2.907l-.08.08a2.197 2.197 0 0 0-.44 2.427v.107a2.2 2.2 0 0 0 2.013 1.334h.227a2.668 2.668 0 0 1 0 5.334h-.12a2.203 2.203 0 0 0-2.013 1.334z"/>
</symbol>
<symbol id="icon-trash" viewBox="0 0 32 32">
<path stroke-linejoin="round" stroke-linecap="round" stroke-miterlimit="4" stroke-width="3" d="M12 4h8"></path>
<path stroke-linejoin="round" stroke-linecap="round" stroke-miterlimit="4" stroke-width="3.6" d="M4 8h24M25.333 8l-0.935 14.026c-0.14 2.104-0.21 3.156-0.665 3.954-0.4 0.702-1.004 1.267-1.731 1.62-0.826 0.4-1.881 0.4-3.99 0.4h-4.025c-2.109 0-3.163 0-3.99-0.4-0.727-0.353-1.331-0.917-1.731-1.62-0.455-0.798-0.525-1.85-0.665-3.954l-0.935-14.026"></path>
</symbol>
<symbol id="icon-Vector" viewBox="0 0 32 32">
<path stroke-linejoin="round" stroke-linecap="round" stroke-miterlimit="4" stroke-width="3.6" d="M22.666 4c0.35-0.35 0.766-0.628 1.223-0.817s0.948-0.287 1.443-0.287c0.495 0 0.986 0.098 1.443 0.287s0.873 0.467 1.224 0.817 0.628 0.766 0.817 1.223c0.19 0.458 0.287 0.948 0.287 1.443s-0.098 0.986-0.287 1.443c-0.189 0.458-0.467 0.873-0.817 1.223l-18 18-7.333 2 2-7.333 18-18z"></path>
</symbol>
<symbol id="icon-eye-off" viewBox="0 0 32 32">
<path stroke-linejoin="round" stroke-linecap="round" stroke-miterlimit="4" stroke-width="2.88" d="M23.92 23.92c-2.279 1.737-5.055 2.7-7.92 2.747-9.333 0-14.667-10.667-14.667-10.667 1.659-3.091 3.959-5.791 6.747-7.92M13.2 5.653c0.918-0.215 1.857-0.322 2.8-0.32 9.333 0 14.667 10.667 14.667 10.667-0.809 1.514-1.775 2.94-2.88 4.253M18.826 18.827c-0.366 0.393-0.808 0.708-1.298 0.927s-1.020 0.336-1.557 0.346-1.071-0.089-1.569-0.291c-0.498-0.201-0.951-0.5-1.33-0.88s-0.679-0.832-0.88-1.33c-0.201-0.498-0.3-1.032-0.29-1.569s0.127-1.067 0.346-1.557 0.534-0.932 0.927-1.298"></path>
<path stroke-linejoin="round" stroke-linecap="round" stroke-miterlimit="4" stroke-width="2.88" d="M1.333 1.333l29.333 29.333"></path>
</symbol>
<symbol id="icon-minus" viewBox="0 0 32 32">
<path stroke-linejoin="miter" stroke-linecap="butt" stroke-miterlimit="4" stroke-width="1.1163" d="M16 0.558c8.528 0 15.442 6.914 15.442 15.442s-6.914 15.442-15.442 15.442c-8.528 0-15.442-6.914-15.442-15.442s6.914-15.442 15.442-15.442z"></path>
<path stroke-linejoin="round" stroke-linecap="round" stroke-miterlimit="4" stroke-width="1.3395" d="M10.286 16h11.429"></path>
</symbol>
<symbol id="icon-plus" viewBox="0 0 32 32">
<path stroke-linejoin="miter" stroke-linecap="butt" stroke-miterlimit="4" stroke-width="1.1163" d="M16 0.558c8.528 0 15.442 6.914 15.442 15.442s-6.914 15.442-15.442 15.442c-8.528 0-15.442-6.914-15.442-15.442s6.914-15.442 15.442-15.442z"></path>
<path stroke-linejoin="round" stroke-linecap="round" stroke-miterlimit="4" stroke-width="1.3395" d="M16 10.286v11.429"></path>
<path stroke-linejoin="round" stroke-linecap="round" stroke-miterlimit="4" stroke-width="1.3395" d="M10.286 16h11.429"></path>
</symbol>
<symbol id="icon-water-glass" viewBox="0 0 23 24">
<path fill="#9be1a0" style="fill: var(--color1, #9be1a0)" d="M20.216 3.919c-0.071-0.24-0.191-0.462-0.351-0.651s-0.358-0.339-0.579-0.442c-0.22-0.107-0.46-0.16-0.703-0.158h-13.662c-0.243-0.014-0.484 0.037-0.703 0.148-0.226 0.104-0.427 0.259-0.589 0.453-0.16 0.188-0.28 0.41-0.351 0.65-0.074 0.238-0.096 0.49-0.066 0.738l1.557 13.783c0.104 0.943 0.541 1.811 1.225 2.442 0.668 0.629 1.537 0.98 2.44 0.984h6.646c0.906-0.004 1.778-0.355 2.449-0.984 0.675-0.636 1.106-1.503 1.215-2.442l0.845-7.748v-0.118l0.655-5.907c0.037-0.249 0.027-0.503-0.028-0.748zM10.627 19.031h-0.949c-0.615-0.035-1.2-0.285-1.661-0.709-0.459-0.429-0.761-1.010-0.854-1.644l-0.228-1.693c-0.029-0.258 0.040-0.518 0.193-0.724s0.378-0.341 0.626-0.377 0.5 0.030 0.702 0.184c0.202 0.154 0.337 0.384 0.377 0.641l0.228 1.674c0.026 0.183 0.113 0.35 0.247 0.473 0.133 0.126 0.304 0.2 0.484 0.207h0.949c0.252 0 0.493 0.104 0.671 0.288s0.278 0.435 0.278 0.696-0.1 0.512-0.278 0.696c-0.178 0.185-0.42 0.288-0.671 0.288h-0.114zM18.223 9.944c-2.003 0.404-3.712 0.482-5.525-0.985-2.25-1.841-4.975-1.25-7.595-0.285l-0.475-4.174c-0.009-0.042-0.009-0.086 0-0.128 0.013-0.041 0.036-0.079 0.066-0.108 0.022-0.036 0.056-0.064 0.095-0.079 0.037-0.011 0.077-0.011 0.114 0h13.785c0.036 0.021 0.068 0.047 0.095 0.079 0.028 0.030 0.047 0.068 0.057 0.108 0.014 0.045 0.014 0.093 0 0.138l-0.617 5.434z"></path>
</symbol>
<symbol id="icon-en-flag" viewBox="0 0 32 32">
<path fill="#fff" style="fill: var(--color1, #fff)" d="M2.286 4.571h27.429c1.262 0 2.286 1.023 2.286 2.286v18.286c0 1.262-1.023 2.286-2.286 2.286h-27.429c-1.262 0-2.286-1.023-2.286-2.286v-18.286c0-1.262 1.023-2.286 2.286-2.286z"></path>
<path fill="#0a17a7" style="fill: var(--color2, #0a17a7)" d="M0 4.571h32v22.857h-32v-22.857z"></path>
<path fill="#fff" style="fill: var(--color1, #fff)" d="M-1.466 2.381l13.656 9.211v-8.545h7.619v8.545l13.656-9.211 1.704 2.527-10.797 7.283h7.627v7.619h-7.627l10.797 7.283-1.704 2.527-13.656-9.211v8.545h-7.619v-8.545l-13.656 9.211-1.704-2.527 10.797-7.283h-7.627v-7.619h7.627l-10.797-7.283 1.704-2.527z"></path>
<path fill="#e6273e" style="fill: var(--color3, #e6273e)" d="M0 18.286h13.714v9.143h4.571v-9.143h13.714v-4.571h-13.714v-9.143h-4.571v9.143h-13.714v4.571z"></path>
</symbol>
<symbol id="icon-uk-flag" viewBox="0 0 32 32">
<path fill="#fff" style="fill: var(--color1, #fff)" d="M2.286 4.571h27.429c1.262 0 2.286 1.023 2.286 2.286v18.286c0 1.262-1.023 2.286-2.286 2.286h-27.429c-1.262 0-2.286-1.023-2.286-2.286v-18.286c0-1.262 1.023-2.286 2.286-2.286z"></path>
<path fill="#156dd1" style="fill: var(--color4, #156dd1)" d="M0 16.762h32v-12.191h-32v12.191z"></path>
<path fill="#ffd948" style="fill: var(--color5, #ffd948)" d="M0 27.429h32v-10.667h-32v10.667z"></path>
</symbol>
</defs>
</svg>
